<svg xmlns="http://www.w3.org/2000/svg" width="300" height="300" viewBox="0 0 300 300" role="img">
  <title>Papeer</title>
  <g transform="translate(150,150) scale(1.3)" fill="#0E9AA6" stroke="#0E9AA6" stroke-width="6" stroke-linejoin="round" stroke-linecap="round">
    <g transform="rotate(0)">
      <path d="M 0,-6 C 34,-24 52,-60 28,-92 C 10,-102 -8,-88 -5,-60 C -3,-34 -8,-14 0,-6 Z"/>
    </g>
    <g transform="rotate(90)">
      <path d="M 0,-6 C 34,-24 52,-60 28,-92 C 10,-102 -8,-88 -5,-60 C -3,-34 -8,-14 0,-6 Z"/>
    </g>
    <g transform="rotate(180)">
      <path d="M 0,-6 C 34,-24 52,-60 28,-92 C 10,-102 -8,-88 -5,-60 C -3,-34 -8,-14 0,-6 Z"/>
    </g>
    <g transform="rotate(270)">
      <path d="M 0,-6 C 34,-24 52,-60 28,-92 C 10,-102 -8,-88 -5,-60 C -3,-34 -8,-14 0,-6 Z"/>
    </g>
    <circle r="12" fill="#0E9AA6" stroke="none"/>
  </g>
</svg>
